<svg width="512" height="512" viewBox="0 0 512 512" fill="none" xmlns="http://www.w3.org/2000/svg">
<rect width="512" height="512" fill="black"/>
<path d="M39.3 370V169.9H87.9V370H39.3ZM115.413 370V169.9H200.313C214.913 169.9 227.513 171.8 238.113 175.6C248.913 179.2 257.313 185.1 263.313 193.3C269.313 201.3 272.313 212 272.313 225.4C272.313 234.4 270.113 241.8 265.713 247.6C261.313 253.4 256.013 258.1 249.813 261.7C243.613 265.1 237.813 267.8 232.413 269.8L227.013 259.3C238.013 259.7 247.613 262 255.813 266.2C264.213 270.2 270.713 275.9 275.313 283.3C280.113 290.5 282.513 299.2 282.513 309.4C282.513 323.4 279.113 334.9 272.313 343.9C265.713 352.7 256.813 359.3 245.613 363.7C234.413 367.9 222.013 370 208.413 370H115.413ZM164.013 332.5H204.813C209.813 332.5 214.413 331.8 218.613 330.4C222.813 328.8 226.213 326.2 228.813 322.6C231.413 318.8 232.713 313.8 232.713 307.6C232.713 303 231.913 299.2 230.313 296.2C228.713 293.2 226.513 290.9 223.713 289.3C221.113 287.5 218.113 286.2 214.713 285.4C211.313 284.6 207.713 284.2 203.913 284.2H164.013V332.5ZM164.013 248.5H203.013C206.413 248.5 209.613 247.9 212.613 246.7C215.613 245.3 218.013 243.2 219.813 240.4C221.813 237.6 222.813 233.9 222.813 229.3C222.813 221.1 220.613 215.5 216.213 212.5C211.813 209.3 206.413 207.7 200.013 207.7H164.013V248.5ZM301.683 370V169.9H399.183C421.783 169.9 439.483 175.2 452.283 185.8C465.083 196.2 471.483 212.1 471.483 233.5C471.483 242.3 469.683 251 466.083 259.6C462.483 268 457.183 275.3 450.183 281.5C443.183 287.5 434.383 291.4 423.783 293.2L420.783 276.7L481.683 370H419.883L369.783 282.7L391.383 301H350.283V370H301.683ZM350.283 265.3H391.083C399.683 265.3 406.483 263 411.483 258.4C416.483 253.8 418.983 246.2 418.983 235.6C418.983 226.4 416.683 219.4 412.083 214.6C407.683 209.8 401.383 207.4 393.183 207.4H350.283V265.3Z" fill="white"/>
</svg>
